<?xml version="1.0" encoding="UTF-8"?>
<svg width="548px" height="16px" viewBox="0 0 548 16" version="1.1" xmlns="http://www.w3.org/2000/svg" xmlns:xlink="http://www.w3.org/1999/xlink">
    <!-- Generator: Sketch 53.1 (72631) - https://sketchapp.com -->
    <title>分组 3</title>
    <desc>Created with Sketch.</desc>
    <defs>
        <path d="M7.36363636,-1.32338585e-13 L539.436364,-1.32338585e-13 C543.503188,-1.33085648e-13 546.8,3.2968123 546.8,7.36363636 L546.8,7.36363636 C546.8,11.4304604 543.503188,14.7272727 539.436364,14.7272727 L7.36363636,14.7272727 C3.2968123,14.7272727 4.98042308e-16,11.4304604 0,7.36363636 L0,7.36363636 C-4.98042308e-16,3.2968123 3.2968123,-1.31591521e-13 7.36363636,-1.32338585e-13 Z" id="path-1"></path>
    </defs>
    <g id="定稿" stroke="none" stroke-width="1" fill="none" fill-rule="evenodd">
        <g id="Online-Compressor-过程-Copy" transform="translate(-761.000000, -412.000000)">
            <g id="1" transform="translate(360.000000, 270.000000)">
                <g id="add">
                    <g id="loading" transform="translate(400.000000, 141.000000)">
                        <g id="分组-3" transform="translate(1.600000, 1.636364)">
                            <mask id="mask-2" fill="white">
                                <use xlink:href="#path-1"></use>
                            </mask>
                            <g id="Mask"></g>
                            <g id="line" mask="url(#mask-2)" fill="rebeccapurple">
                                <g transform="translate(298.579022, 35.542658) rotate(45.000000) translate(-298.579022, -35.542658) translate(16.079022, -164.457342)">
                                    <rect id="矩形-copy-4" x="32" y="0" width="5.6" height="400"></rect>
                                    <rect id="矩形-copy-5" x="40" y="0" width="5.6" height="400"></rect>
                                    <rect id="矩形-copy-6" x="48" y="0" width="5.6" height="400"></rect>
                                    <rect id="矩形-copy-7" x="56" y="0" width="5.6" height="400"></rect>
                                    <rect id="矩形-copy-27" x="64" y="0" width="5.6" height="400"></rect>
                                    <rect id="矩形-copy-26" x="72" y="0" width="5.6" height="400"></rect>
                                    <rect id="矩形-copy-25" x="80" y="0" width="5.6" height="400"></rect>
                                    <rect id="矩形-copy-24" x="88" y="0" width="5.6" height="400"></rect>
                                    <rect id="矩形-copy-23" x="96" y="0" width="5.6" height="400"></rect>
                                    <rect id="矩形-copy-22" x="104" y="0" width="5.6" height="400"></rect>
                                    <rect id="矩形-copy-21" x="112" y="0" width="5.6" height="400"></rect>
                                    <rect id="矩形-copy-20" x="120" y="0" width="5.6" height="400"></rect>
                                    <rect id="矩形-copy-43" x="128" y="0" width="5.6" height="400"></rect>
                                    <rect id="矩形-copy-42" x="136" y="0" width="5.6" height="400"></rect>
                                    <rect id="矩形-copy-41" x="144" y="0" width="5.6" height="400"></rect>
                                    <rect id="矩形-copy-40" x="152" y="0" width="5.6" height="400"></rect>
                                    <rect id="矩形-copy-39" x="160" y="0" width="5.6" height="400"></rect>
                                    <rect id="矩形-copy-38" x="168" y="0" width="5.6" height="400"></rect>
                                    <rect id="矩形-copy-37" x="176" y="0" width="5.6" height="400"></rect>
                                    <rect id="矩形-copy-36" x="184" y="0" width="5.6" height="400"></rect>
                                    <rect id="矩形-copy-35" x="192" y="0" width="5.6" height="400"></rect>
                                    <rect id="矩形-copy-34" x="200" y="0" width="5.6" height="400"></rect>
                                    <rect id="矩形-copy-33" x="208" y="0" width="5.6" height="400"></rect>
                                    <rect id="矩形-copy-32" x="216" y="0" width="5.6" height="400"></rect>
                                    <rect id="矩形-copy-31" x="224" y="0" width="5.6" height="400"></rect>
                                    <rect id="矩形-copy-30" x="232" y="0" width="5.6" height="400"></rect>
                                    <rect id="矩形-copy-29" x="240" y="0" width="5.6" height="400"></rect>
                                    <rect id="矩形-copy-28" x="256" y="0" width="5.6" height="400"></rect>
                                    <rect id="矩形-copy-75" x="248" y="0" width="5.6" height="400"></rect>
                                    <rect id="矩形-copy-74" x="264" y="0" width="5.6" height="400"></rect>
                                    <rect id="矩形-copy-73" x="272" y="0" width="5.6" height="400"></rect>
                                    <rect id="矩形-copy-72" x="280" y="0" width="5.6" height="400"></rect>
                                    <rect id="矩形-copy-71" x="288" y="0" width="5.6" height="400"></rect>
                                    <rect id="矩形-copy-70" x="296" y="0" width="5.6" height="400"></rect>
                                    <rect id="矩形-copy-69" x="304" y="0" width="5.6" height="400"></rect>
                                    <rect id="矩形-copy-68" x="312" y="0" width="5.6" height="400"></rect>
                                    <rect id="矩形-copy-67" x="320" y="0" width="5.6" height="400"></rect>
                                    <rect id="矩形-copy-66" x="328" y="0" width="5.6" height="400"></rect>
                                    <rect id="矩形-copy-65" x="336" y="0" width="5.6" height="400"></rect>
                                    <rect id="矩形-copy-64" x="344" y="0" width="5.6" height="400"></rect>
                                    <rect id="矩形-copy-63" x="352" y="0" width="5.6" height="400"></rect>
                                    <rect id="矩形-copy-62" x="360" y="0" width="5.6" height="400"></rect>
                                    <rect id="矩形-copy-61" x="368" y="0" width="5.6" height="400"></rect>
                                    <rect id="矩形-copy-60" x="376" y="0" width="5.6" height="400"></rect>
                                    <rect id="矩形-copy-59" x="384" y="0" width="5.6" height="400"></rect>
                                    <rect id="矩形-copy-58" x="392" y="0" width="5.6" height="400"></rect>
                                    <rect id="矩形-copy-57" x="400" y="0" width="5.6" height="400"></rect>
                                    <rect id="矩形-copy-56" x="407" y="0" width="5.6" height="400"></rect>
                                    <rect id="矩形-copy-55" x="415" y="0" width="5.6" height="400"></rect>
                                    <rect id="矩形-copy-54" x="423" y="0" width="5.6" height="400"></rect>
                                    <rect id="矩形-copy-53" x="431" y="0" width="5.6" height="400"></rect>
                                    <rect id="矩形-copy-52" x="439" y="0" width="5.6" height="400"></rect>
                                    <rect id="矩形-copy-51" x="447" y="0" width="5.6" height="400"></rect>
                                </g>
                            </g>
                        </g>
                    </g>
                </g>
            </g>
        </g>
    </g>
</svg>