<?xml version="1.0" encoding="UTF-8"?>
<svg width="378px" height="85px" viewBox="0 0 378 85" version="1.1" xmlns="http://www.w3.org/2000/svg" xmlns:xlink="http://www.w3.org/1999/xlink">
    <!-- Generator: Sketch 53.1 (72631) - https://sketchapp.com -->
    <title>Group 4</title>
    <desc>Created with Sketch.</desc>
    <g id="组件" stroke="none" stroke-width="1" fill="none" fill-rule="evenodd">
        <g id="Brand/Light/recoverit-Horizontal" transform="translate(-17.000000, -28.000000)">
            <g id="Group-4" transform="translate(21.000000, 32.000000)">
                <path d="M119.343958,28.0269053 L129.401853,15.6355789 C131.735284,12.7389053 133.183621,12.0147368 136.965389,12.0147368 L140.425305,12.0147368 C144.207074,12.0147368 144.528926,12.7389053 142.195495,15.6355789 L129.723705,31.2454316 C127.5512,33.9811789 126.344253,35.5904421 126.183326,36.1536842 C126.102863,36.4755368 126.0224,36.7973895 126.0224,37.1192421 C126.0224,37.6824842 126.183326,38.1652632 126.505179,38.6480421 L129.723705,42.7516632 L143.804758,60.6144842 C146.138189,63.5916211 145.816337,64.3157895 142.034568,64.3157895 L138.574653,64.3157895 C134.792884,64.3157895 133.344547,63.5916211 131.011116,60.6144842 L119.343958,45.8092632 C116.8496,42.6712 115.642653,39.6940632 115.642653,36.7973895 C115.642653,33.9811789 116.8496,31.0845053 119.343958,28.0269053 Z M102.446695,59.6489263 L102.446695,16.6816 C102.446695,13.0607579 103.331789,12.0147368 107.113558,12.0147368 L108.561895,12.0147368 C112.343663,12.0147368 113.228758,13.0607579 113.228758,16.6816 L113.228758,59.6489263 C113.228758,63.2697684 112.343663,64.3157895 108.561895,64.3157895 L107.113558,64.3157895 C103.331789,64.3157895 102.446695,63.2697684 102.446695,59.6489263 Z M181.70961,40.4986947 C181.70961,41.6251789 181.629147,42.6712 181.548684,43.6367579 C181.146368,47.2576 180.100347,48.0622316 176.318579,48.0622316 L155.880937,48.0622316 L155.880937,49.2691789 C155.880937,53.4532632 159.019,55.3843789 166.42161,55.3843789 C169.398747,55.3843789 172.617274,54.9820632 176.157652,54.2578947 C179.617568,53.5337263 180.4222,54.3383579 180.4222,58.1201263 L180.4222,59.0052211 C180.4222,62.5456 179.698031,63.3502316 176.157652,64.2353263 C173.502368,64.9594947 170.283842,65.2813474 166.341147,65.2813474 C151.938242,65.2813474 145.340263,59.9707789 145.340263,47.6599158 L145.340263,41.2228632 C145.340263,29.1533895 151.616389,23.1186526 164.088179,23.1186526 C175.8358,23.1186526 181.70961,28.912 181.70961,40.4986947 Z M155.880937,38.3261895 L155.880937,39.5331368 L171.732179,39.5331368 L171.732179,38.3261895 C171.732179,34.2225684 169.076895,32.2109895 163.766326,32.2109895 C158.536221,32.2109895 155.880937,34.2225684 155.880937,38.3261895 Z M223.718084,40.4986947 C223.718084,41.6251789 223.637621,42.6712 223.557158,43.6367579 C223.154842,47.2576 222.108821,48.0622316 218.327052,48.0622316 L197.88941,48.0622316 L197.88941,49.2691789 C197.88941,53.4532632 201.027473,55.3843789 208.430084,55.3843789 C211.407221,55.3843789 214.625747,54.9820632 218.166126,54.2578947 C221.626042,53.5337263 222.430673,54.3383579 222.430673,58.1201263 L222.430673,59.0052211 C222.430673,62.5456 221.706505,63.3502316 218.166126,64.2353263 C215.510842,64.9594947 212.292316,65.2813474 208.349621,65.2813474 C193.946716,65.2813474 187.348737,59.9707789 187.348737,47.6599158 L187.348737,41.2228632 C187.348737,29.1533895 193.624863,23.1186526 206.096652,23.1186526 C217.844273,23.1186526 223.718084,28.912 223.718084,40.4986947 Z M197.88941,38.3261895 L197.88941,39.5331368 L213.740652,39.5331368 L213.740652,38.3261895 C213.740652,34.2225684 211.085368,32.2109895 205.7748,32.2109895 C200.544694,32.2109895 197.88941,34.2225684 197.88941,38.3261895 Z M230.161842,75.9024842 L230.161842,40.7400842 C230.161842,28.7510737 237.805842,23.1186526 249.312073,23.1186526 C262.105715,23.1186526 268.542768,28.9924632 268.542768,40.7400842 L268.542768,47.1771368 C268.542768,58.7638316 262.668957,65.2813474 251.645505,65.2813474 C246.576326,65.2813474 242.875021,63.7525474 240.622052,60.6949474 L240.622052,75.9024842 C240.622052,79.5233263 239.736957,80.4084211 236.116115,80.4084211 L234.667779,80.4084211 C231.046936,80.4084211 230.161842,79.5233263 230.161842,75.9024842 Z M258.002094,47.4185263 L258.002094,40.9814737 C258.002094,35.2685895 256.392831,33.0156211 249.392536,33.0156211 C242.553168,33.0156211 240.622052,35.4295158 240.622052,40.9814737 L240.622052,47.4185263 C240.622052,52.9704842 242.553168,55.3843789 249.392536,55.3843789 C256.231905,55.3843789 258.002094,52.9704842 258.002094,47.4185263 Z M283.113305,28.5096842 L288.423873,52.8095579 C289.067578,55.6257684 289.791747,56.1890105 291.803326,56.1890105 C293.814905,56.1890105 294.539073,55.7062316 295.182778,52.8095579 L300.493347,28.5096842 C301.378442,24.9693053 302.343999,24.0842105 305.964842,24.0842105 L307.735031,24.0842105 C311.355873,24.0842105 311.999578,24.9693053 311.27541,28.5096842 L305.401599,54.0165053 C304.436042,58.1201263 303.792336,59.9707789 301.861221,62.2237474 C300.010568,64.4767158 296.872505,65.2813474 291.803326,65.2813474 C286.734147,65.2813474 283.596084,64.4767158 281.664968,62.3042105 C279.814315,60.0512421 279.17061,58.2005895 278.205052,54.0165053 L272.331242,28.5096842 C271.607073,24.9693053 272.250778,24.0842105 275.871621,24.0842105 L277.64181,24.0842105 C281.262652,24.0842105 282.22821,24.9693053 283.113305,28.5096842 Z M317.477778,59.8098526 L317.477778,28.5901474 C317.477778,24.9693053 318.362873,24.0842105 321.983715,24.0842105 L323.432052,24.0842105 C327.052894,24.0842105 327.937989,24.9693053 327.937989,28.5901474 L327.937989,59.8098526 C327.937989,63.4306947 327.052894,64.3157895 323.432052,64.3157895 L321.983715,64.3157895 C318.362873,64.3157895 317.477778,63.4306947 317.477778,59.8098526 Z M318.28241,16.4402105 C315.788052,13.9458526 315.788052,10.0836211 318.28241,7.58926316 C320.776768,5.09490526 324.638999,5.09490526 327.133357,7.58926316 C329.627715,10.0836211 329.627715,13.9458526 327.133357,16.4402105 C324.638999,18.9345684 320.776768,18.9345684 318.28241,16.4402105 Z M373.567304,12.4975158 L373.567304,47.6599158 C373.567304,59.6489263 365.923304,65.2813474 354.417073,65.2813474 C341.623431,65.2813474 335.186378,59.4075368 335.186378,47.6599158 L335.186378,41.2228632 C335.186378,29.6361684 341.060189,23.1186526 352.083641,23.1186526 C357.15282,23.1186526 360.854126,24.6474526 363.107094,27.7050526 L363.107094,12.4975158 C363.107094,8.87667368 363.992189,7.99157895 367.613031,7.99157895 L369.061368,7.99157895 C372.68221,7.99157895 373.567304,8.87667368 373.567304,12.4975158 Z M345.727052,40.9814737 L345.727052,47.4185263 C345.727052,53.1314105 347.336315,55.3843789 354.33661,55.3843789 C361.175978,55.3843789 363.107094,52.9704842 363.107094,47.4185263 L363.107094,40.9814737 C363.107094,35.4295158 361.175978,33.0156211 354.33661,33.0156211 C347.497241,33.0156211 345.727052,35.4295158 345.727052,40.9814737 Z" id="Keepvid" fill="blueviolet"></path>
                <path d="M60.3894895,59.091058 C66.3456411,52.8159375 70,44.3347294 70,35 C70,15.6700338 54.3299662,0 35,0 C25.2418323,0 16.4163764,3.9934136 10.0687379,10.435135 C3.8423316,16.7538275 0,25.4282014 0,35 C0,54.3299662 15.6700338,70 35,70 L72.9617599,70" id="Oval-5" stroke="blueviolet" stroke-width="8" stroke-linecap="round" stroke-linejoin="round"></path>
                <path d="M16.7869623,27.6221479 C14.3459452,27.6790409 12.3209891,25.7463264 12.2640962,23.3053094 C12.2072032,20.8642924 14.1399177,18.8393362 16.5809347,18.7824433 L27.4909353,18.5281633 C29.9319523,18.4712703 31.9569084,20.4039848 32.0138014,22.8450018 C32.0706943,25.2860188 30.1379798,27.310975 27.6969628,27.3678679 L16.7869623,27.6221479 Z" id="Rectangle-31" fill="#FF6500" fill-rule="nonzero" transform="translate(22.138949, 23.075156) rotate(45.000000) translate(-22.138949, -23.075156) "></path>
                <path d="M41.7210764,52.4359518 C39.2797677,52.4785239 37.2661844,50.5339636 37.2236122,48.0926548 C37.1810401,45.651346 39.1256004,43.6377627 41.5669092,43.5951906 L52.975548,43.3962442 C55.4168567,43.3536721 57.4304401,45.2982324 57.4730122,47.7395411 C57.5155843,50.1808499 55.571024,52.1944332 53.1297152,52.2370053 L41.7210764,52.4359518 Z" id="Rectangle-31" fill="#8F42FF" fill-rule="nonzero" transform="translate(47.348312, 47.916098) rotate(45.000000) translate(-47.348312, -47.916098) "></path>
                <path d="M16.5286869,52.2343513 C14.0870405,52.2215627 12.1180622,50.2318499 12.1308508,47.7902034 C12.1436395,45.348557 14.1333523,43.3795787 16.5749987,43.3923674 L27.9166012,43.4517714 C30.3582476,43.4645601 32.3272259,45.4542729 32.3144372,47.8959193 C32.3016486,50.3375658 30.3119358,52.3065441 27.8702893,52.2937554 L16.5286869,52.2343513 Z" id="Rectangle-31" fill="#95C420" fill-rule="nonzero" transform="translate(22.222644, 47.843061) rotate(-45.000000) translate(-22.222644, -47.843061) "></path>
                <path d="M41.5822863,27.1415257 C39.141047,27.0951419 37.199633,25.0785249 37.2460168,22.6372856 C37.2924006,20.1960463 39.3090176,18.2546323 41.7502569,18.301016 L53.0445396,18.5156086 C55.4857789,18.5619924 57.4271929,20.5786094 57.3808091,23.0198487 C57.3344253,25.461088 55.3178083,27.402502 52.876569,27.3561182 L41.5822863,27.1415257 Z" id="Rectangle-31" fill="rebeccapurple" fill-rule="nonzero" transform="translate(47.313413, 22.828567) rotate(-45.000000) translate(-47.313413, -22.828567) "></path>
            </g>
        </g>
    </g>
</svg>