<svg xmlns="http://www.w3.org/2000/svg" width="416" height="140" viewBox="0 0 416 140">
    <g fill="#FFF" fill-rule="evenodd">
        <path d="M140.344 60.027l10.058-12.391c2.333-2.897 3.782-3.621 7.563-3.621h3.46c3.782 0 4.104.724 1.77 3.62l-12.471 15.61c-2.173 2.736-3.38 4.345-3.54 4.909-.081.322-.162.643-.162.965 0 .563.161 1.046.483 1.529l3.219 4.104 14.08 17.862c2.334 2.978 2.012 3.702-1.77 3.702h-3.46c-3.781 0-5.23-.724-7.563-3.702L140.344 77.81c-2.494-3.138-3.701-6.115-3.701-9.012 0-2.816 1.207-5.712 3.701-8.77zm-16.897 31.622V48.682c0-3.621.885-4.667 4.667-4.667h1.448c3.782 0 4.667 1.046 4.667 4.667v42.967c0 3.62-.885 4.667-4.667 4.667h-1.448c-3.782 0-4.667-1.046-4.667-4.667zm79.263-19.15c0 1.126-.08 2.172-.161 3.138-.403 3.62-1.449 4.425-5.23 4.425H176.88v1.207c0 4.184 3.138 6.115 10.54 6.115 2.978 0 6.196-.402 9.737-1.126 3.46-.724 4.264.08 4.264 3.862v.885c0 3.54-.724 4.345-4.264 5.23-2.656.724-5.874 1.046-9.817 1.046-14.403 0-21-5.31-21-17.621v-6.437c0-12.07 6.275-18.104 18.747-18.104 11.748 0 17.622 5.793 17.622 17.38zm-25.83-2.173v1.207h15.852v-1.207c0-4.103-2.655-6.115-7.966-6.115-5.23 0-7.885 2.012-7.885 6.115zm67.838 2.173c0 1.126-.08 2.172-.16 3.138-.403 3.62-1.45 4.425-5.23 4.425h-20.439v1.207c0 4.184 3.138 6.115 10.541 6.115 2.977 0 6.196-.402 9.736-1.126 3.46-.724 4.265.08 4.265 3.862v.885c0 3.54-.724 4.345-4.265 5.23-2.655.724-5.874 1.046-9.816 1.046-14.403 0-21.001-5.31-21.001-17.621v-6.437c0-12.07 6.276-18.104 18.748-18.104 11.747 0 17.621 5.793 17.621 17.38zm-25.829-2.173v1.207h15.852v-1.207c0-4.103-2.656-6.115-7.966-6.115-5.23 0-7.886 2.012-7.886 6.115zm32.273 37.576V72.74c0-11.989 7.644-17.621 19.15-17.621 12.794 0 19.23 5.873 19.23 17.621v6.437c0 11.587-5.873 18.104-16.896 18.104-5.07 0-8.771-1.528-11.024-4.586v15.207c0 3.621-.885 4.506-4.506 4.506h-1.448c-3.621 0-4.506-.885-4.506-4.506zm27.84-28.483V72.98c0-5.712-1.61-7.965-8.61-7.965-6.839 0-8.77 2.414-8.77 7.965v6.438c0 5.551 1.931 7.965 8.77 7.965 6.84 0 8.61-2.414 8.61-7.965zm25.111-18.91l5.31 24.3c.645 2.817 1.369 3.38 3.38 3.38 2.012 0 2.736-.483 3.38-3.38l5.31-24.3c.885-3.54 1.851-4.425 5.472-4.425h1.77c3.62 0 4.265.885 3.54 4.426l-5.873 25.507c-.966 4.103-1.61 5.954-3.54 8.207-1.851 2.253-4.99 3.057-10.059 3.057-5.069 0-8.207-.804-10.138-2.977-1.85-2.253-2.494-4.103-3.46-8.287l-5.874-25.507c-.724-3.54-.08-4.426 3.54-4.426h1.77c3.622 0 4.587.885 5.472 4.426zm34.365 31.3V60.59c0-3.62.885-4.506 4.506-4.506h1.448c3.62 0 4.506.885 4.506 4.506v31.22c0 3.62-.885 4.506-4.506 4.506h-1.448c-3.621 0-4.506-.885-4.506-4.506zm.804-43.369c-2.494-2.494-2.494-6.356 0-8.85 2.495-2.495 6.357-2.495 8.851 0 2.495 2.494 2.495 6.356 0 8.85-2.494 2.495-6.356 2.495-8.85 0zm55.285-3.942V79.66c0 11.989-7.644 17.621-19.15 17.621-12.794 0-19.23-5.873-19.23-17.621v-6.437c0-11.587 5.873-18.104 16.897-18.104 5.069 0 8.77 1.528 11.023 4.586V44.498c0-3.621.885-4.506 4.506-4.506h1.448c3.621 0 4.506.885 4.506 4.506zm-27.84 28.483v6.438c0 5.712 1.61 7.965 8.61 7.965 6.839 0 8.77-2.414 8.77-7.965V72.98c0-5.551-1.931-7.965-8.77-7.965-6.84 0-8.61 2.414-8.61 7.965z"/>
        <path fill-rule="nonzero" d="M84.29 93.845a4 4 0 1 1-5.802-5.508A30.875 30.875 0 0 0 87 67c0-17.12-13.88-31-31-31a30.888 30.888 0 0 0-22.082 9.243A30.882 30.882 0 0 0 25 67c0 17.12 13.88 31 31 31h37.962a4 4 0 1 1 0 8H56c-21.54 0-39-17.46-39-39a38.88 38.88 0 0 1 11.22-27.372A38.886 38.886 0 0 1 56 28c21.54 0 39 17.46 39 39a38.873 38.873 0 0 1-10.71 26.845z"/>
        <path fill-rule="nonzero" d="M36.14 54.506a4.421 4.421 0 1 1 6.104-6.396l7.895 7.534a4.421 4.421 0 1 1-6.105 6.397l-7.895-7.535zM61.173 79.133a4.421 4.421 0 0 1 6.143-6.36l8.207 7.926a4.421 4.421 0 0 1-6.142 6.36l-8.208-7.926zM42.302 86.974a4.421 4.421 0 0 1-6.22-6.285l8.062-7.977a4.421 4.421 0 0 1 6.22 6.285l-8.062 7.977zM67.31 61.93a4.421 4.421 0 0 1-6.132-6.37l8.138-7.834a4.421 4.421 0 0 1 6.133 6.37l-8.138 7.835z"/>
    </g>
</svg>
