<?xml version="1.0" encoding="UTF-8"?>
<svg width="120px" height="120px" viewBox="0 0 120 120" version="1.1" xmlns="http://www.w3.org/2000/svg" xmlns:xlink="http://www.w3.org/1999/xlink">
    <!-- Generator: Sketch 53.1 (72631) - https://sketchapp.com -->
    <title>Icon120/Dark/M4A Converter</title>
    <desc>Created with Sketch.</desc>
    <g id="Icon120/Dark/M4A-Converter" stroke="none" stroke-width="1" fill="none" fill-rule="evenodd">
        <g id="分组-2" transform="translate(5.000000, 8.000000)">
            <g id="分组" transform="translate(63.000000, 60.000000)" stroke="#FF6500" stroke-linecap="round" stroke-width="4">
                <path d="M10.6495367,5.84932855 C6.30524369,9.59838389 3.55555556,15.1447466 3.55555556,21.3333333 C3.55555556,32.6244882 12.7088451,41.7777778 24,41.7777778 M36.9069653,37.1893045 C41.5067723,33.4404689 44.4444444,27.7299662 44.4444444,21.3333333 C44.4444444,10.0421784 35.2911549,0.888888889 24,0.888888889" id="形状"></path>
                <polyline id="Path-21" stroke-linejoin="round" transform="translate(38.709389, 35.153834) rotate(45.000000) translate(-38.709389, -35.153834) " points="30.7093894 31.1511669 38.863215 39.1565007 46.7093894 31.1511669"></polyline>
                <polyline id="Path-21-Copy" stroke-linejoin="round" transform="translate(8.487167, 8.487167) scale(-1, -1) rotate(45.000000) translate(-8.487167, -8.487167) " points="0.487167143 4.48450026 8.64099278 12.489834 16.4871671 4.48450026"></polyline>
            </g>
            <g>
                <path d="M86,17 C86,35.6666667 86,35.6666667 86,45 M62,98 C51.3333333,98 35.3333333,98 14,98 C11.790861,98 10,96.209139 10,94 L10,4 C10,1.790861 11.790861,0 14,0 L68,0" id="形状" stroke="#FFFFFF" stroke-width="4" stroke-linecap="round" stroke-linejoin="round"></path>
                <g id="分组-4" transform="translate(20.000000, 20.000000)" stroke="#FFFFFF" stroke-width="4">
                    <path d="M7.79776338,32.7446444 C11.5639926,39.461024 18.751929,44 27,44 C39.1502645,44 49,34.1502645 49,22 C49,9.8497355 39.1502645,-3.55271368e-15 27,-3.55271368e-15" id="路径" stroke-linecap="round"></path>
                    <g id="分组-3" transform="translate(0.000000, 1.000000)" stroke-linecap="round" stroke-linejoin="round">
                        <polyline id="路径-2" points="18.9326172 0.934570312 12.8232422 3.72363281 12.8232422 19"></polyline>
                        <ellipse id="椭圆形" transform="translate(7.000000, 19.500000) rotate(-15.000000) translate(-7.000000, -19.500000) " cx="7" cy="19.5" rx="6" ry="4.5"></ellipse>
                    </g>
                    <circle id="椭圆形-copy" cx="27" cy="22" r="6"></circle>
                </g>
                <path d="M68,0 L82,0 C84.209139,0 86,1.790861 86,4 L86,17 L68,0 Z" id="路径" stroke="#FFFFFF" stroke-width="4" stroke-linecap="round" stroke-linejoin="round" transform="translate(77.000000, 8.500000) scale(-1, -1) translate(-77.000000, -8.500000) "></path>
            </g>
        </g>
    </g>
</svg>