<svg xmlns="http://www.w3.org/2000/svg" width="120" height="120" viewBox="0 0 120 120">
    <g fill="none" fill-rule="evenodd">
        <g stroke="#FF6500" stroke-linecap="round" stroke-width="4">
            <path d="M78.65 73.85c-4.345 3.748-7.094 9.295-7.094 15.483 0 11.291 9.153 20.445 20.444 20.445m12.907-4.589c4.6-3.749 7.537-9.459 7.537-15.856 0-11.29-9.153-20.444-20.444-20.444"/>
            <path stroke-linejoin="round" d="M103.883 94.667l.105 11.426 11.209-.113M79.314 84.974l-.105-11.426L68 73.661"/>
        </g>
        <path stroke="blueviolet" stroke-linecap="round" stroke-linejoin="round" stroke-width="4" d="M91 25v28m-24 53H19a4 4 0 0 1-4-4V12a4 4 0 0 1 4-4h54"/>
        <g stroke="blueviolet" stroke-width="4" transform="translate(25 28)">
            <path stroke-linecap="round" d="M7.798 32.745C11.564 39.46 18.752 44 27 44c12.15 0 22-9.85 22-22S39.15 0 27 0"/>
            <g stroke-linecap="round" stroke-linejoin="round" transform="translate(0 1)">
                <path d="M18.933.935l-6.11 2.789V19"/>
                <ellipse cx="7" cy="19.5" rx="6" ry="4.5" transform="rotate(-15 7 19.5)"/>
            </g>
            <circle cx="27" cy="22" r="6"/>
        </g>
        <path stroke="blueviolet" stroke-linecap="round" stroke-linejoin="round" stroke-width="4" d="M91 25H77a4 4 0 0 1-4-4V8l18 17z"/>
    </g>
</svg>
