<svg xmlns="http://www.w3.org/2000/svg" width="120" height="120" viewBox="0 0 120 120">
    <g fill="none" fill-rule="evenodd">
        <g stroke="#FF6500" stroke-linecap="round" stroke-width="4">
            <path d="M74.65 69.85c-4.345 3.748-7.094 9.295-7.094 15.483 0 11.291 9.153 20.445 20.444 20.445m12.907-4.589c4.6-3.749 7.537-9.459 7.537-15.856 0-11.29-9.153-20.444-20.444-20.444"/>
            <path stroke-linejoin="round" d="M99.883 90.667l.105 11.426 11.209-.113M75.314 80.974l-.105-11.426L64 69.661"/>
        </g>
        <g transform="translate(10 13)">
            <path stroke="blueviolet" stroke-linecap="round" stroke-linejoin="round" stroke-width="4" d="M49.76 84H9a3 3 0 0 1-3-3V3a3 3 0 0 1 3-3h54a3 3 0 0 1 3 3v42"/>
            <circle cx="36" cy="66" r="7" stroke="blueviolet" stroke-width="4"/>
            <rect width="44" height="42" x="14" y="7" stroke="blueviolet" stroke-width="4" rx="2"/>
            <g stroke="blueviolet" stroke-linecap="round" stroke-linejoin="round" stroke-width="4" transform="translate(27 16)">
                <path d="M18.933.935l-6.11 2.789V19"/>
                <ellipse cx="7" cy="19.5" rx="6" ry="4.5" transform="rotate(-15 7 19.5)"/>
            </g>
        </g>
    </g>
</svg>
