<?xml version="1.0" encoding="UTF-8"?>
<svg width="120px" height="120px" viewBox="0 0 120 120" version="1.1" xmlns="http://www.w3.org/2000/svg" xmlns:xlink="http://www.w3.org/1999/xlink">
    <!-- Generator: Sketch 53.1 (72631) - https://sketchapp.com -->
    <title>Icon120/Dark/mp4 edit</title>
    <desc>Created with Sketch.</desc>
    <g id="Icon120/Dark/mp4-edit" stroke="none" stroke-width="1" fill="none" fill-rule="evenodd">
        <path d="M103.969885,71.4041207 C105.289185,67.1703205 106,62.6681701 106,58 C106,33.1471863 85.8528137,13 61,13 C36.1471863,13 16,33.1471863 16,58 C16,82.8528137 36.1471863,103 61,103 L61,103 C67.369405,103 73.4297348,101.676692 78.9210566,99.2900082" id="路径" stroke="#FFFFFF" stroke-width="4" stroke-linecap="round" stroke-linejoin="round"></path>
        <g id="分组" transform="translate(41.000000, 38.000000)" stroke-width="4">
            <circle id="Oval-12" stroke="#FFFFFF" cx="20" cy="20" r="20"></circle>
            <path d="M22.5399384,14.4784278 L28.3385433,24.5219061 C28.6146857,25.0001987 28.4508105,25.6117891 27.9725179,25.8879315 C27.8204987,25.9756998 27.6480546,26.0219061 27.4725179,26.0219061 L15.8753082,26.0219061 C15.3230234,26.0219061 14.8753082,25.5741909 14.8753082,25.0219061 C14.8753082,24.8463694 14.9215144,24.6739253 15.0092828,24.5219061 L20.8078876,14.4784278 C21.08403,14.0001352 21.6956204,13.8362601 22.173913,14.1124024 C22.3259323,14.2001708 22.4521701,14.3264086 22.5399384,14.4784278 Z" id="Polygon" stroke="#FFFFFF" transform="translate(21.673997, 20.000083) rotate(90.000000) translate(-21.673997, -20.000083) "></path>
        </g>
        <g id="分组-2" transform="translate(81.000000, 76.000000)" stroke="#FF6500">
            <path d="M14.5057412,27.9999985 C14.0783558,28.0002851 13.6840455,27.7630217 13.4742483,27.3793311 L9.38062631,19.8900492 L1.07692351,19.1157229 C0.628335231,19.0736601 0.241711633,18.7730757 0.0793207289,18.3401266 C-0.0827858057,17.9067699 0.00772929223,17.4161677 0.312854662,17.0743459 L5.9577212,10.7543318 L4.10608669,2.37230464 C4.00610727,1.91963354 4.16410091,1.4477182 4.51367666,1.15486352 C4.86325241,0.862008831 5.34382671,0.798968259 5.75345606,0.992232258 L13.3352987,4.57337254 L20.4975197,0.171871748 C20.8847021,-0.0655936926 21.3690495,-0.0563670241 21.74745,0.195682531 C22.1259789,0.447722293 22.3325604,0.899571988 22.2801415,1.36082302 L21.3158127,9.89365169 L27.5947332,15.5542662 C27.9441098,15.8682509 28.0827513,16.3625625 27.9508878,16.8194119 C27.8190243,17.2762613 27.4397627,17.6134218 26.9819376,17.680092 L24.0686171,18.1064636 C23.4257264,18.1920185 22.835545,17.7290816 22.7443909,17.0677435 C22.6532369,16.4064054 23.0949855,15.7924377 23.7355694,15.6901463 L24.0926483,15.6383975 L19.2882575,11.3073766 C18.9949803,11.0431257 18.846792,10.6470024 18.8920508,10.2482734 L19.650574,3.53331794 L14.0140259,6.99699175 C13.6793072,7.20158349 13.2686221,7.22446851 12.9144446,7.05826481 L6.94700548,4.23970423 L8.40428191,10.8378282 C8.49073782,11.2292873 8.38487435,11.6395253 8.12114512,11.9350286 L3.6787627,16.9089404 L10.2137078,17.5181787 C10.6011858,17.5548352 10.9465764,17.7849913 11.1379846,18.1340841 L14.3590893,24.0270917 L14.6909047,23.2251448 C14.9476681,22.6054137 15.6433564,22.3175106 16.244768,22.5820952 C16.8461797,22.8466798 17.1255723,23.5635593 16.8688089,24.1832904 L15.5948474,27.2590073 C15.4091343,27.7089457 14.9802322,28.0007563 14.5057412,27.9999985 L14.5057412,27.9999985 Z" id="路径" stroke-width="0.5" fill="#FF6500" fill-rule="nonzero"></path>
            <path d="M25.7175144,17.7175144 L25.7175144,35.7175144" id="路径-13" stroke-width="3" stroke-linecap="round" transform="translate(25.717514, 26.717514) rotate(-45.000000) translate(-25.717514, -26.717514) "></path>
        </g>
    </g>
</svg>