<svg xmlns="http://www.w3.org/2000/svg" width="120" height="120" viewBox="0 0 120 120">
    <g fill="none" fill-rule="evenodd">
        <path stroke="blueviolet" stroke-linecap="round" stroke-linejoin="round" stroke-width="4" d="M103.97 71.404A44.985 44.985 0 0 0 106 58c0-24.853-20.147-45-45-45S16 33.147 16 58s20.147 45 45 45a44.85 44.85 0 0 0 17.921-3.71"/>
        <g stroke-width="4" transform="translate(41 38)">
            <circle cx="20" cy="20" r="20" stroke="blueviolet"/>
            <path stroke="blueviolet" d="M27.196 20.866l-10.044 5.799a1 1 0 0 1-1.5-.866V14.2a1 1 0 0 1 1.5-.866l10.044 5.799a1 1 0 0 1 0 1.732z"/>
        </g>
        <g stroke="#FF6500">
            <path fill="#FF6500" fill-rule="nonzero" stroke-width=".5" d="M95.506 104c-.428 0-.822-.237-1.032-.62l-4.093-7.49-8.304-.774a1.19 1.19 0 0 1-.998-.776 1.25 1.25 0 0 1 .234-1.266l5.645-6.32-1.852-8.382c-.1-.452.058-.924.408-1.217.35-.293.83-.356 1.24-.163l7.581 3.581 7.163-4.401a1.156 1.156 0 0 1 1.25.024c.378.252.585.704.532 1.165l-.964 8.533 6.279 5.66c.35.314.488.809.356 1.265a1.197 1.197 0 0 1-.97.861l-2.912.426c-.643.086-1.233-.377-1.325-1.038-.09-.662.351-1.276.992-1.378l.357-.052-4.805-4.33a1.239 1.239 0 0 1-.396-1.06l.759-6.715-5.637 3.464a1.158 1.158 0 0 1-1.1.061l-5.967-2.818 1.457 6.598c.087.391-.02.802-.283 1.097l-4.442 4.974 6.535.61c.387.036.733.266.924.615l3.221 5.893.332-.802c.257-.62.952-.907 1.554-.643.601.265.88.982.624 1.601l-1.274 3.076c-.186.45-.615.742-1.09.741z"/>
            <path stroke-linecap="round" stroke-width="3" d="M100.354 96.354l12.727 12.727"/>
        </g>
    </g>
</svg>
