<svg xmlns="http://www.w3.org/2000/svg" width="120" height="120" viewBox="0 0 120 120">
    <g fill="none" fill-rule="evenodd">
        <path stroke="blueviolet" stroke-linecap="round" stroke-linejoin="round" stroke-width="4" d="M59.009 87H13a3 3 0 0 1-3-3V21a3 3 0 0 1 3-3h90a3 3 0 0 1 3 3v33.863"/>
        <g stroke="blueviolet" stroke-width="4" transform="translate(40 35)">
            <circle cx="18" cy="18" r="18"/>
            <path d="M24.326 18.866l-8.739 5.046a1 1 0 0 1-1.5-.866V12.954a1 1 0 0 1 1.5-.866l8.74 5.046a1 1 0 0 1 0 1.732z"/>
        </g>
        <path stroke="blueviolet" stroke-width="4" d="M51 97V87"/>
        <g stroke="#FF6500" stroke-linecap="round" stroke-linejoin="round" stroke-width="4" transform="translate(68 63)">
            <path d="M30 23.5H0M10.822 38.786l13.152-26.964"/>
            <circle cx="26" cy="6" r="6"/>
            <circle cx="37" cy="23" r="6"/>
        </g>
        <path stroke="blueviolet" stroke-linecap="round" stroke-linejoin="round" stroke-width="4" d="M36.193 98.997H58.87"/>
    </g>
</svg>
