<?xml version="1.0" encoding="UTF-8"?>
<svg width="120px" height="120px" viewBox="0 0 120 120" version="1.1" xmlns="http://www.w3.org/2000/svg" xmlns:xlink="http://www.w3.org/1999/xlink">
    <!-- Generator: Sketch 53.1 (72631) - https://sketchapp.com -->
    <title>Icon120/Dark/video edit</title>
    <desc>Created with Sketch.</desc>
    <g id="Icon120/Dark/video-edit" stroke="none" stroke-width="1" fill="none" fill-rule="evenodd">
        <g id="Group-2" transform="translate(4.000000, 18.000000)">
            <path d="M55.0087891,69 L9,69 C7.34314575,69 6,67.6568542 6,66 L6,3 C6,1.34314575 7.34314575,3.04359188e-16 9,0 L99,0 C100.656854,-3.04359188e-16 102,1.34314575 102,3 L102,36.8632812" id="Rectangle-4" stroke="#FFFFFF" stroke-width="4" stroke-linecap="round" stroke-linejoin="round"></path>
            <g id="分组" transform="translate(36.000000, 17.000000)" stroke="#FFFFFF" stroke-width="4">
                <circle id="Oval-12" cx="18" cy="18" r="18"></circle>
                <path d="M20.3225471,13.1306018 L25.3680865,21.8697322 C25.6442288,22.3480248 25.4803537,22.9596152 25.002061,23.2357576 C24.8500418,23.3235259 24.6775977,23.3697322 24.502061,23.3697322 L14.4109824,23.3697322 C13.8586977,23.3697322 13.4109824,22.9220169 13.4109824,22.3697322 C13.4109824,22.1941955 13.4571887,22.0217514 13.544957,21.8697322 L18.5904963,13.1306018 C18.8666387,12.6523091 19.4782291,12.488434 19.9565217,12.7645764 C20.1085409,12.8523447 20.2347788,12.9785825 20.3225471,13.1306018 Z" id="Polygon" transform="translate(19.456605, 18.000083) rotate(90.000000) translate(-19.456605, -18.000083) "></path>
            </g>
            <path d="M47,79 L47,69" id="Rectangle-2" stroke="#FFFFFF" stroke-width="4"></path>
            <g stroke="#FF6500" stroke-linecap="round" stroke-width="4">
				<path d="M76.65 67.85c-4.345 3.748-7.094 9.295-7.094 15.483 0 11.291 9.153 20.445 20.444 20.445m12.907-4.589c4.6-3.749 7.537-9.459 7.537-15.856 0-11.29-9.153-20.444-20.444-20.444"/>
				<path stroke-linejoin="round" d="M101.883 88.667l.105 11.426 11.209-.113M77.314 78.974l-.105-11.426L66 67.661"/>
			</g>
            <path d="M32.1933594,80.9970703 L54.8691406,80.9970703" id="路径-2" stroke="#FFFFFF" stroke-width="4" stroke-linecap="round" stroke-linejoin="round"></path>
        </g>
    </g>
</svg>