<?xml version="1.0" encoding="UTF-8"?>
<svg width="120px" height="120px" viewBox="0 0 120 120" version="1.1" xmlns="http://www.w3.org/2000/svg" xmlns:xlink="http://www.w3.org/1999/xlink">
    <!-- Generator: Sketch 53.1 (72631) - https://sketchapp.com -->
    <title>Icon120/Dark/WAV Converter</title>
    <desc>Created with Sketch.</desc>
    <g id="Icon120/Dark/WAV-Converter" stroke="none" stroke-width="1" fill="none" fill-rule="evenodd">
        <g id="分组-2" transform="translate(5.000000, 8.000000)">
            <g id="分组" transform="translate(63.000000, 60.000000)" stroke="#FF6500" stroke-linecap="round" stroke-width="4">
                <path d="M10.6495367,5.84932855 C6.30524369,9.59838389 3.55555556,15.1447466 3.55555556,21.3333333 C3.55555556,32.6244882 12.7088451,41.7777778 24,41.7777778 M36.9069653,37.1893045 C41.5067723,33.4404689 44.4444444,27.7299662 44.4444444,21.3333333 C44.4444444,10.0421784 35.2911549,0.888888889 24,0.888888889" id="形状"></path>
                <polyline id="Path-21" stroke-linejoin="round" transform="translate(38.709389, 35.153834) rotate(45.000000) translate(-38.709389, -35.153834) " points="30.7093894 31.1511669 38.863215 39.1565007 46.7093894 31.1511669"></polyline>
                <polyline id="Path-21-Copy" stroke-linejoin="round" transform="translate(8.487167, 8.487167) scale(-1, -1) rotate(45.000000) translate(-8.487167, -8.487167) " points="0.487167143 4.48450026 8.64099278 12.489834 16.4871671 4.48450026"></polyline>
            </g>
            <g>
                <g id="分组-3" transform="translate(29.000000, 33.000000)" stroke="#FFFFFF" stroke-width="4">
                    <rect id="矩形" x="0" y="8.35714286" width="8.35714286" height="13.9285714" rx="1"></rect>
                    <path d="M8.87149993,8.35058038 L23.5857856,0.175977208 C24.0685694,-0.0922359772 24.6773727,0.08170782 24.9455858,0.564491553 C25.0281181,0.713049554 25.0714286,0.880190235 25.0714286,1.05013448 L25.0714286,30.1511056 C25.0714286,30.7033903 24.6237133,31.1511056 24.0714286,31.1511056 C23.9014843,31.1511056 23.7343436,31.1077951 23.5857856,31.0252628 L8.87149993,22.8506597 C8.55403474,22.6742901 8.35714286,22.3396695 8.35714286,21.9765024 L8.35714286,9.22473766 C8.35714286,8.86157053 8.55403474,8.52694993 8.87149993,8.35058038 Z" id="矩形-copy"></path>
                    <path d="M32.5,21.3571429 L32.5,21.3571429 C35.833433,21.3571429 38.5357143,18.6548615 38.5357143,15.3214286 C38.5357143,11.9879956 35.833433,9.28571429 32.5,9.28571429" id="路径" stroke-linecap="round"></path>
                </g>
                <path d="M86,17 C86,35.6666667 86,35.6666667 86,45 M62,98 C51.3333333,98 35.3333333,98 14,98 C11.790861,98 10,96.209139 10,94 L10,4 C10,1.790861 11.790861,0 14,0 L68,0" id="形状" stroke="#FFFFFF" stroke-width="4" stroke-linecap="round" stroke-linejoin="round"></path>
                <path d="M68,0 L82,0 C84.209139,0 86,1.790861 86,4 L86,17 L68,0 Z" id="路径" stroke="#FFFFFF" stroke-width="4" stroke-linecap="round" stroke-linejoin="round" transform="translate(77.000000, 8.500000) scale(-1, -1) translate(-77.000000, -8.500000) "></path>
            </g>
        </g>
    </g>
</svg>