<svg xmlns="http://www.w3.org/2000/svg" width="158" height="31" viewBox="0 0 158 31">
    <g fill="none" fill-rule="nonzero">
        <path fill="#FFF" d="M0 2.443h11.918c2.761 0 5.21.516 7.346 1.548s3.793 2.497 4.969 4.393c1.176 1.896 1.764 4.117 1.764 6.661 0 2.545-.588 4.765-1.764 6.662-1.176 1.896-2.833 3.36-4.969 4.393-2.136 1.032-4.585 1.548-7.346 1.548H0V2.443zm11.63 19.516c2.16 0 3.895-.612 5.203-1.837 1.309-1.224 1.963-2.916 1.963-5.077 0-2.16-.654-3.852-1.963-5.077-1.308-1.224-3.042-1.836-5.203-1.836h-4.5v13.827h4.5zm26.553 6.013c-2.088 0-3.973-.432-5.653-1.296-1.68-.864-2.994-2.065-3.943-3.6-.948-1.537-1.422-3.278-1.422-5.222 0-1.92.474-3.649 1.422-5.185.949-1.536 2.257-2.73 3.925-3.583 1.668-.852 3.559-1.278 5.671-1.278 2.113 0 4.01.426 5.69 1.278 1.68.852 2.988 2.04 3.924 3.565.936 1.524 1.405 3.259 1.405 5.203 0 1.944-.469 3.685-1.405 5.221s-2.244 2.737-3.925 3.6c-1.68.865-3.576 1.297-5.689 1.297zm0-5.437c1.2 0 2.185-.414 2.953-1.242.768-.828 1.152-1.975 1.152-3.439 0-1.44-.384-2.569-1.152-3.385-.768-.816-1.752-1.224-2.953-1.224-1.2 0-2.184.408-2.952 1.224-.768.816-1.153 1.945-1.153 3.385 0 1.464.385 2.61 1.153 3.439.768.828 1.752 1.242 2.952 1.242zm41.83-14.727h7.13v19.84h-7.13V7.808zM111.609.93v26.718h-6.518v-1.944c-1.272 1.512-3.18 2.268-5.725 2.268-1.776 0-3.397-.414-4.861-1.242-1.464-.828-2.622-2.01-3.475-3.547-.852-1.536-1.278-3.313-1.278-5.329 0-2.016.426-3.787 1.278-5.311.853-1.524 2.01-2.695 3.475-3.51 1.464-.817 3.085-1.225 4.861-1.225 2.329 0 4.129.672 5.401 2.016V.93h6.842zm-10.803 21.605c1.177 0 2.149-.414 2.917-1.242.768-.828 1.152-1.975 1.152-3.439 0-1.44-.378-2.569-1.134-3.385-.756-.816-1.734-1.224-2.935-1.224-1.2 0-2.184.408-2.952 1.224-.768.816-1.153 1.945-1.153 3.385 0 1.464.385 2.61 1.153 3.439.768.828 1.752 1.242 2.952 1.242zm34.115-4.609c0 .048-.036.612-.108 1.692h-14.187c.288 1.009.846 1.783 1.674 2.323s1.867.81 3.115.81c.936 0 1.746-.132 2.43-.396.684-.264 1.375-.696 2.07-1.296l3.602 3.744c-1.897 2.113-4.67 3.17-8.318 3.17-2.28 0-4.285-.433-6.013-1.297-1.729-.864-3.067-2.065-4.015-3.6-.948-1.537-1.423-3.278-1.423-5.222 0-1.92.463-3.643 1.387-5.167.924-1.524 2.202-2.719 3.835-3.583 1.632-.864 3.468-1.296 5.509-1.296 1.944 0 3.708.402 5.293 1.206a9.177 9.177 0 0 1 3.763 3.493c.924 1.524 1.386 3.33 1.386 5.419zm-10.406-5.257c-1.057 0-1.939.3-2.647.9-.708.6-1.158 1.416-1.35 2.449h7.993c-.192-1.033-.642-1.849-1.35-2.449-.708-.6-1.59-.9-2.646-.9zm22.34 15.303c-2.089 0-3.973-.432-5.653-1.296-1.68-.864-2.995-2.065-3.943-3.6-.948-1.537-1.423-3.278-1.423-5.222 0-1.92.475-3.649 1.423-5.185.948-1.536 2.256-2.73 3.925-3.583 1.668-.852 3.558-1.278 5.67-1.278 2.113 0 4.01.426 5.69 1.278 1.68.852 2.988 2.04 3.925 3.565.936 1.524 1.404 3.259 1.404 5.203 0 1.944-.468 3.685-1.404 5.221-.937 1.536-2.245 2.737-3.925 3.6-1.68.865-3.577 1.297-5.69 1.297zm0-5.437c1.2 0 2.184-.414 2.952-1.242.768-.828 1.153-1.975 1.153-3.439 0-1.44-.385-2.569-1.153-3.385-.768-.816-1.752-1.224-2.952-1.224s-2.185.408-2.953 1.224c-.768.816-1.152 1.945-1.152 3.385 0 1.464.384 2.61 1.152 3.439.768.828 1.752 1.242 2.953 1.242z"/>
        <path fill="#26C15E" d="M69.36 7.68h9.358L63.401 30.096 48.463 7.68h8.91l6.028 8.74zM59.215 0h8.064v6.144h-8.064z"/>
        <path fill="#FFF" d="M79.951.384h7.296V5.76h-7.296z"/>
    </g>
</svg>
